<mxfile host="app.diagrams.net" modified="2023-09-05T12:01:30.553Z" agent="Mozilla/5.0 (Windows NT 10.0; Win64; x64) AppleWebKit/537.36 (KHTML, like Gecko) Chrome/116.0.0.0 Safari/537.36" etag="m6VEESTwBjdyPmg4tHFe" version="21.7.2" type="device">
  <diagram id="nWS09FHVeRhoW53s7X2K" name="Seite-1">
    <mxGraphModel dx="1434" dy="750" grid="1" gridSize="10" guides="1" tooltips="1" connect="1" arrows="1" fold="1" page="1" pageScale="1" pageWidth="827" pageHeight="1169" math="0" shadow="0">
      <root>
        <mxCell id="0" />
        <mxCell id="1" parent="0" />
        <mxCell id="HSRq0OkOa7dt3RhMJO7E-1" value="&lt;font style=&quot;font-size: 26px;&quot;&gt;Client&lt;/font&gt;" style="whiteSpace=wrap;html=1;aspect=fixed;" vertex="1" parent="1">
          <mxGeometry x="120" y="160" width="160" height="160" as="geometry" />
        </mxCell>
        <mxCell id="HSRq0OkOa7dt3RhMJO7E-2" value="&lt;span style=&quot;font-size: 21px;&quot;&gt;Server&lt;/span&gt;" style="whiteSpace=wrap;html=1;aspect=fixed;" vertex="1" parent="1">
          <mxGeometry x="480" y="160" width="160" height="160" as="geometry" />
        </mxCell>
        <mxCell id="HSRq0OkOa7dt3RhMJO7E-3" value="" style="endArrow=classic;html=1;rounded=0;exitX=1.006;exitY=0.356;exitDx=0;exitDy=0;exitPerimeter=0;entryX=0;entryY=0.375;entryDx=0;entryDy=0;entryPerimeter=0;" edge="1" parent="1" source="HSRq0OkOa7dt3RhMJO7E-1" target="HSRq0OkOa7dt3RhMJO7E-2">
          <mxGeometry width="50" height="50" relative="1" as="geometry">
            <mxPoint x="340" y="230" as="sourcePoint" />
            <mxPoint x="390" y="180" as="targetPoint" />
          </mxGeometry>
        </mxCell>
        <mxCell id="HSRq0OkOa7dt3RhMJO7E-5" value="HTTP Anfrage(Request)" style="text;html=1;align=center;verticalAlign=middle;resizable=0;points=[];autosize=1;strokeColor=none;fillColor=none;" vertex="1" parent="1">
          <mxGeometry x="300" y="180" width="150" height="30" as="geometry" />
        </mxCell>
        <mxCell id="HSRq0OkOa7dt3RhMJO7E-6" value="" style="endArrow=classic;html=1;rounded=0;exitX=-0.025;exitY=0.569;exitDx=0;exitDy=0;exitPerimeter=0;entryX=1.019;entryY=0.563;entryDx=0;entryDy=0;entryPerimeter=0;" edge="1" parent="1" source="HSRq0OkOa7dt3RhMJO7E-2" target="HSRq0OkOa7dt3RhMJO7E-1">
          <mxGeometry width="50" height="50" relative="1" as="geometry">
            <mxPoint x="360" y="290" as="sourcePoint" />
            <mxPoint x="300" y="250" as="targetPoint" />
          </mxGeometry>
        </mxCell>
        <mxCell id="HSRq0OkOa7dt3RhMJO7E-8" value="HTTP Antwort(Response)" style="text;html=1;align=center;verticalAlign=middle;resizable=0;points=[];autosize=1;strokeColor=none;fillColor=none;" vertex="1" parent="1">
          <mxGeometry x="300" y="258" width="160" height="30" as="geometry" />
        </mxCell>
        <mxCell id="HSRq0OkOa7dt3RhMJO7E-9" value="&lt;font style=&quot;font-size: 21px;&quot;&gt;Datenbank&lt;/font&gt;" style="whiteSpace=wrap;html=1;aspect=fixed;" vertex="1" parent="1">
          <mxGeometry x="480" y="440" width="160" height="160" as="geometry" />
        </mxCell>
        <mxCell id="HSRq0OkOa7dt3RhMJO7E-10" value="" style="endArrow=classic;html=1;rounded=0;entryX=0.338;entryY=1;entryDx=0;entryDy=0;entryPerimeter=0;exitX=0.331;exitY=-0.025;exitDx=0;exitDy=0;exitPerimeter=0;" edge="1" parent="1" source="HSRq0OkOa7dt3RhMJO7E-9" target="HSRq0OkOa7dt3RhMJO7E-2">
          <mxGeometry width="50" height="50" relative="1" as="geometry">
            <mxPoint x="534" y="430" as="sourcePoint" />
            <mxPoint x="580" y="390" as="targetPoint" />
          </mxGeometry>
        </mxCell>
        <mxCell id="HSRq0OkOa7dt3RhMJO7E-11" value="" style="endArrow=classic;html=1;rounded=0;exitX=0.613;exitY=1.019;exitDx=0;exitDy=0;exitPerimeter=0;entryX=0.613;entryY=0;entryDx=0;entryDy=0;entryPerimeter=0;" edge="1" parent="1" source="HSRq0OkOa7dt3RhMJO7E-2" target="HSRq0OkOa7dt3RhMJO7E-9">
          <mxGeometry width="50" height="50" relative="1" as="geometry">
            <mxPoint x="580" y="330" as="sourcePoint" />
            <mxPoint x="578" y="430" as="targetPoint" />
          </mxGeometry>
        </mxCell>
      </root>
    </mxGraphModel>
  </diagram>
</mxfile>
